<svg width="417" height="383" viewBox="0 0 417 383" fill="none" xmlns="http://www.w3.org/2000/svg">
<path d="M255.738 17.8981C256.669 18.7131 256.669 18.7131 257.619 19.5443C269.998 31.1151 276.188 47.0362 278.543 63.5358C278.543 76.9827 278.543 90.4295 278.543 104.284C324.234 104.284 369.925 104.284 417 104.284C417 196.26 417 288.236 417 383C279.39 383 141.78 383 0 383C0 291.024 0 199.047 0 104.284C45.6908 104.284 91.3816 104.284 138.457 104.284C138.457 90.837 138.457 77.3902 138.457 63.5358C141.456 47.5333 145.666 34.9699 156.375 22.7879C156.917 22.1669 157.461 21.5459 158.02 20.9061C183.683 -6.58327 228.231 -6.31515 255.738 17.8981ZM182.183 47.4909C175.867 55.4596 174.035 63.7331 174.134 73.643C174.136 74.4229 174.137 75.202 174.139 76.0047C174.147 78.8946 174.17 81.7844 174.191 84.6743C174.225 91.145 174.259 97.6166 174.293 104.284C196.87 104.284 219.446 104.284 242.707 104.284C242.774 97.8962 242.841 91.5093 242.911 84.9285C242.94 82.9327 242.97 80.9369 243 78.8807C243.119 65.3719 241.994 55.2754 232.399 44.9735C224.954 38.0692 215.717 35.3961 205.754 35.5754C196.493 36.3635 188.477 40.6966 182.183 47.4909ZM35.0215 140.142C35.0215 208.721 35.0215 277.3 35.0215 347.957C149.517 347.957 264.013 347.957 381.979 347.957C381.979 279.378 381.979 210.799 381.979 140.142C347.845 140.142 313.711 140.142 278.543 140.142C278.543 163.002 278.543 185.861 278.543 209.414C266.717 209.414 254.891 209.414 242.707 209.414C242.707 186.554 242.707 163.694 242.707 140.142C220.13 140.142 197.554 140.142 174.293 140.142C174.293 163.002 174.293 185.861 174.293 209.414C162.467 209.414 150.641 209.414 138.457 209.414C138.457 186.554 138.457 163.694 138.457 140.142C104.323 140.142 70.1896 140.142 35.0215 140.142Z" fill="white"/>
</svg>
