<svg width="589" height="56" viewBox="0 0 589 56" fill="none" xmlns="http://www.w3.org/2000/svg">
<g clip-path="url(#clip0_1969_526)">
<mask id="mask0_1969_526" style="mask-type:alpha" maskUnits="userSpaceOnUse" x="0" y="1" width="570" height="94">
<path d="M553.871 53.2599H510.971V93.1699H495.371V2.16992H510.971V39.4799H553.871V2.16992H569.471V93.1699H553.871V53.2599Z" fill="black"/>
<path d="M461.576 21.1499L455.856 33.3699L423.876 93.1699H403.076V2.16992H418.676V74.8399L424.656 61.9699L456.636 2.16992H477.176V93.1699H461.576V21.1499Z" fill="black"/>
<path d="M355.662 94.34C344.655 94.34 336.335 91.61 330.702 86.15C325.069 80.69 321.905 72.8467 321.212 62.62H337.592C338.285 68.6 340.019 72.9767 342.792 75.75C345.652 78.4367 349.942 79.78 355.662 79.78C361.382 79.78 365.585 78.5667 368.272 76.14C371.045 73.7133 372.432 70.5067 372.432 66.52C372.432 62.5333 371.045 59.3267 368.272 56.9C365.585 54.4733 361.382 53.26 355.662 53.26H344.612V39.48H355.662C360.862 39.48 364.632 38.44 366.972 36.36C369.312 34.1933 370.482 31.2467 370.482 27.52C370.482 23.7933 369.312 20.89 366.972 18.81C364.632 16.6433 360.862 15.56 355.662 15.56C350.462 15.56 346.649 16.73 344.222 19.07C341.795 21.41 340.235 25.0933 339.542 30.12H323.162C323.855 20.9333 326.889 13.7833 332.262 8.67C337.635 3.55667 345.435 1 355.662 1C360.775 1 365.282 1.65 369.182 2.95C373.082 4.16334 376.332 5.89667 378.932 8.15C381.532 10.4033 383.482 13.09 384.782 16.21C386.169 19.2433 386.862 22.58 386.862 26.22C386.862 30.5533 385.952 34.41 384.132 37.79C382.312 41.17 379.539 43.9433 375.812 46.11C380.232 48.3633 383.482 51.3533 385.562 55.08C387.729 58.8067 388.812 63.0533 388.812 67.82C388.812 71.6333 388.119 75.1867 386.732 78.48C385.345 81.6867 383.222 84.46 380.362 86.8C377.589 89.14 374.122 91.0033 369.962 92.39C365.889 93.69 361.122 94.34 355.662 94.34Z" fill="black"/>
<path d="M293.671 70.1599H259.221L251.681 93.1699H235.301L267.801 2.16992H286.001L318.501 93.1699H301.341L293.671 70.1599ZM263.771 56.3799H289.121L282.621 36.4899L276.511 17.7699L270.401 36.4899L263.771 56.3799Z" fill="black"/>
<path d="M189.795 2.16992H245.695V15.9499H205.395V93.1699H189.795V2.16992Z" fill="black"/>
<path d="M155.165 70.1599H120.715L113.175 93.1699H96.7949L129.295 2.16992H147.495L179.995 93.1699H162.835L155.165 70.1599ZM125.265 56.3799H150.615L144.115 36.4899L138.005 17.7699L131.895 36.4899L125.265 56.3799Z" fill="black"/>
<path d="M20.93 33.3699L15.6 19.5899V93.1699H0V2.16992H23.4L43.68 51.4399L63.96 2.16992H87.1V93.1699H71.5V19.4599L66.04 33.3699L51.35 69.1199H35.75L20.93 33.3699Z" fill="black"/>
</mask>
<g mask="url(#mask0_1969_526)">
<rect x="-28.2666" y="1.16992" width="607" height="55" fill="black"/>
</g>
</g>
<defs>
<clipPath id="clip0_1969_526">
<rect width="589" height="56" fill="white"/>
</clipPath>
</defs>
</svg>
