<svg width="589" height="56" viewBox="0 0 589 56" fill="none" xmlns="http://www.w3.org/2000/svg">
<g clip-path="url(#clip0_1969_513)">
<g clip-path="url(#clip1_1969_513)">
<mask id="mask0_1969_513" style="mask-type:alpha" maskUnits="userSpaceOnUse" x="-14" y="0" width="587" height="95">
<path d="M482.895 2H498.495V32.94H512.145C523.758 32.94 532.511 35.67 538.405 41.13C544.298 46.59 547.245 53.87 547.245 62.97C547.245 72.6767 544.428 80.13 538.795 85.33C533.248 90.4433 524.365 93 512.145 93H482.895V2ZM556.995 2H572.595V93H556.995V2ZM498.495 46.72V79.22H512.145C518.645 79.22 523.368 77.8333 526.315 75.06C529.348 72.2 530.865 68.17 530.865 62.97C530.865 58.03 529.305 54.0867 526.185 51.14C523.065 48.1933 518.384 46.72 512.145 46.72H498.495Z" fill="black"/>
<path d="M400.335 2H471.835V15.78H443.885V93H428.285V15.78H400.335V2Z" fill="black"/>
<path d="M362 94.1701C356.02 94.1701 350.56 93.2168 345.62 91.3101C340.766 89.4034 336.606 86.5868 333.14 82.8601C329.76 79.1334 327.116 74.6267 325.21 69.3401C323.303 63.9667 322.35 57.8134 322.35 50.8801V44.1201C322.35 37.2734 323.303 31.2067 325.21 25.9201C327.116 20.5467 329.803 15.9967 333.27 12.2701C336.736 8.54341 340.896 5.72674 345.75 3.82008C350.69 1.82674 356.106 0.830078 362 0.830078C367.286 0.830078 372.053 1.61008 376.3 3.17008C380.633 4.73008 384.36 6.85341 387.48 9.54008C390.6 12.1401 393.113 15.2167 395.02 18.7701C397.013 22.2367 398.356 25.9634 399.05 29.9501H381.89C381.196 27.9567 380.286 26.0934 379.16 24.3601C378.033 22.5401 376.646 20.9801 375 19.6801C373.353 18.3801 371.446 17.3401 369.28 16.5601C367.113 15.7801 364.686 15.3901 362 15.3901C355.066 15.3901 349.433 17.7734 345.1 22.5401C340.853 27.3067 338.73 34.5001 338.73 44.1201V50.8801C338.73 55.6467 339.293 59.8501 340.42 63.4901C341.633 67.0434 343.236 70.0334 345.23 72.4601C347.31 74.8001 349.78 76.5768 352.64 77.7901C355.5 79.0034 358.62 79.6101 362 79.6101C367.286 79.6101 371.62 78.0501 375 74.9301C378.38 71.8101 380.676 67.6501 381.89 62.4501H399.05C398.356 67.0434 397.013 71.2901 395.02 75.1901C393.113 79.0034 390.556 82.3401 387.35 85.2001C384.23 87.9734 380.546 90.1834 376.3 91.8301C372.053 93.3901 367.286 94.1701 362 94.1701Z" fill="black"/>
<path d="M291.805 20.98L286.085 33.2L254.105 93H233.305V2H248.905V74.67L254.885 61.8L286.865 2H307.405V93H291.805V20.98Z" fill="black"/>
<path d="M150.745 2H222.245V15.78H194.295V93H178.695V15.78H150.745V2Z" fill="black"/>
<path d="M79.9453 2H111.145C123.365 2 132.249 4.6 137.795 9.8C143.429 14.9133 146.245 22.3233 146.245 32.03C146.245 41.13 143.299 48.41 137.405 53.87C131.512 59.33 122.759 62.06 111.145 62.06H95.5453V93H79.9453V2ZM95.5453 15.78V48.28H111.145C117.385 48.28 122.065 46.8067 125.185 43.86C128.305 40.9133 129.865 36.97 129.865 32.03C129.865 26.83 128.349 22.8433 125.315 20.07C122.369 17.21 117.645 15.78 111.145 15.78H95.5453Z" fill="black"/>
<path d="M45.3153 69.99H10.8653L3.32531 93H-13.0547L19.4453 2H37.6453L70.1453 93H52.9853L45.3153 69.99ZM15.4153 56.21H40.7653L34.2653 36.32L28.1553 17.6L22.0453 36.32L15.4153 56.21Z" fill="black"/>
</mask>
<g mask="url(#mask0_1969_513)">
<rect x="-29" y="1" width="695" height="55" fill="black"/>
</g>
</g>
</g>
<defs>
<clipPath id="clip0_1969_513">
<rect width="589" height="56" fill="white"/>
</clipPath>
<clipPath id="clip1_1969_513">
<rect width="695" height="92" fill="white" transform="translate(-29)"/>
</clipPath>
</defs>
</svg>
