<svg width="589" height="92" viewBox="0 0 589 92" fill="none" xmlns="http://www.w3.org/2000/svg">
<mask id="mask0_1852_1453" style="mask-type:alpha" maskUnits="userSpaceOnUse" x="0" y="-1" width="589" height="94">
<path d="M573.295 19.48L567.575 31.7L535.595 91.5H514.795V0.5H530.395V73.17L536.375 60.3L568.355 0.5H588.895V91.5H573.295V19.48Z" fill="black"/>
<path d="M432.234 0.5H503.734V14.28H475.784V91.5H460.184V14.28H432.234V0.5Z" fill="black"/>
<path d="M393.9 92.6701C387.92 92.6701 382.46 91.7167 377.52 89.8101C372.667 87.9034 368.507 85.0868 365.04 81.3601C361.66 77.6334 359.017 73.1267 357.11 67.8401C355.203 62.4667 354.25 56.3134 354.25 49.3801V42.6201C354.25 35.7734 355.203 29.7067 357.11 24.4201C359.017 19.0467 361.703 14.4967 365.17 10.7701C368.637 7.04341 372.797 4.22674 377.65 2.32008C382.59 0.326743 388.007 -0.669922 393.9 -0.669922C399.187 -0.669922 403.953 0.110078 408.2 1.67008C412.533 3.23008 416.26 5.35341 419.38 8.04008C422.5 10.6401 425.013 13.7167 426.92 17.2701C428.913 20.7367 430.257 24.4634 430.95 28.4501H413.79C413.097 26.4567 412.187 24.5934 411.06 22.8601C409.933 21.0401 408.547 19.4801 406.9 18.1801C405.253 16.8801 403.347 15.8401 401.18 15.0601C399.013 14.2801 396.587 13.8901 393.9 13.8901C386.967 13.8901 381.333 16.2734 377 21.0401C372.753 25.8067 370.63 33.0001 370.63 42.6201V49.3801C370.63 54.1467 371.193 58.3501 372.32 61.9901C373.533 65.5434 375.137 68.5334 377.13 70.9601C379.21 73.3001 381.68 75.0768 384.54 76.2901C387.4 77.5034 390.52 78.1101 393.9 78.1101C399.187 78.1101 403.52 76.5501 406.9 73.4301C410.28 70.3101 412.577 66.1501 413.79 60.9501H430.95C430.257 65.5434 428.913 69.7901 426.92 73.6901C425.013 77.5034 422.457 80.8401 419.25 83.7001C416.13 86.4734 412.447 88.6834 408.2 90.3301C403.953 91.8901 399.187 92.6701 393.9 92.6701Z" fill="black"/>
<path d="M302.255 92.6701C296.188 92.6701 290.642 91.7167 285.615 89.8101C280.675 87.8167 276.428 85.0001 272.875 81.3601C269.408 77.6334 266.722 73.0834 264.815 67.7101C262.908 62.3368 261.955 56.2267 261.955 49.3801V42.6201C261.955 35.8601 262.908 29.7934 264.815 24.4201C266.808 19.0467 269.538 14.5401 273.005 10.9001C276.558 7.17341 280.805 4.31341 285.745 2.32008C290.772 0.326743 296.275 -0.669922 302.255 -0.669922C308.322 -0.669922 313.825 0.326743 318.765 2.32008C323.792 4.22674 328.038 7.04341 331.505 10.7701C335.058 14.4967 337.788 19.0467 339.695 24.4201C341.602 29.7067 342.555 35.7734 342.555 42.6201V49.3801C342.555 56.1401 341.558 62.2068 339.565 67.5801C337.658 72.9534 334.928 77.5034 331.375 81.2301C327.908 84.9567 323.662 87.8167 318.635 89.8101C313.695 91.7167 308.235 92.6701 302.255 92.6701ZM302.255 78.1101C309.362 78.1101 315.125 75.7267 319.545 70.9601C323.965 66.1067 326.175 58.9134 326.175 49.3801V42.6201C326.175 37.9401 325.568 33.8234 324.355 30.2701C323.228 26.6301 321.582 23.6401 319.415 21.3001C317.335 18.8734 314.822 17.0534 311.875 15.8401C308.928 14.5401 305.722 13.8901 302.255 13.8901C295.062 13.8901 289.255 16.3167 284.835 21.1701C280.502 25.9367 278.335 33.0867 278.335 42.6201V49.3801C278.335 58.8267 280.545 65.9768 284.965 70.8301C289.472 75.6834 295.235 78.1101 302.255 78.1101Z" fill="black"/>
<path d="M184.59 0.5H215.14C221.12 0.5 226.19 1.06333 230.35 2.19C234.597 3.31667 238.02 4.92 240.62 7C243.307 9.08 245.257 11.68 246.47 14.8C247.683 17.8333 248.29 21.3 248.29 25.2C248.29 29.1867 247.337 32.8267 245.43 36.12C243.523 39.4133 240.577 42.1 236.59 44.18C241.53 46.1733 245.127 49.0333 247.38 52.76C249.72 56.4 250.89 60.56 250.89 65.24C250.89 69.5733 250.283 73.3867 249.07 76.68C247.857 79.8867 245.907 82.6167 243.22 84.87C240.62 87.0367 237.197 88.6833 232.95 89.81C228.79 90.9367 223.72 91.5 217.74 91.5H184.59V0.5ZM200.19 51.07V78.24H217.74C223.98 78.24 228.313 77.1567 230.74 74.99C233.253 72.7367 234.51 69.27 234.51 64.59C234.51 59.9967 233.253 56.6167 230.74 54.45C228.313 52.1967 223.98 51.07 217.74 51.07H200.19ZM200.19 13.76V38.33H215.14C221.293 38.33 225.627 37.29 228.14 35.21C230.653 33.0433 231.91 29.9667 231.91 25.98C231.91 22.08 230.653 19.09 228.14 17.01C225.627 14.8433 221.293 13.76 215.14 13.76H200.19Z" fill="black"/>
<path d="M129.345 92.6701C123.278 92.6701 117.732 91.7167 112.705 89.8101C107.765 87.8167 103.518 85.0001 99.9649 81.3601C96.4983 77.6334 93.8116 73.0834 91.9049 67.7101C89.9983 62.3368 89.0449 56.2267 89.0449 49.3801V42.6201C89.0449 35.8601 89.9983 29.7934 91.9049 24.4201C93.8983 19.0467 96.6283 14.5401 100.095 10.9001C103.648 7.17341 107.895 4.31341 112.835 2.32008C117.862 0.326743 123.365 -0.669922 129.345 -0.669922C135.412 -0.669922 140.915 0.326743 145.855 2.32008C150.882 4.22674 155.128 7.04341 158.595 10.7701C162.148 14.4967 164.878 19.0467 166.785 24.4201C168.692 29.7067 169.645 35.7734 169.645 42.6201V49.3801C169.645 56.1401 168.648 62.2068 166.655 67.5801C164.748 72.9534 162.018 77.5034 158.465 81.2301C154.998 84.9567 150.752 87.8167 145.725 89.8101C140.785 91.7167 135.325 92.6701 129.345 92.6701ZM129.345 78.1101C136.452 78.1101 142.215 75.7267 146.635 70.9601C151.055 66.1067 153.265 58.9134 153.265 49.3801V42.6201C153.265 37.9401 152.658 33.8234 151.445 30.2701C150.318 26.6301 148.672 23.6401 146.505 21.3001C144.425 18.8734 141.912 17.0534 138.965 15.8401C136.018 14.5401 132.812 13.8901 129.345 13.8901C122.152 13.8901 116.345 16.3167 111.925 21.1701C107.592 25.9367 105.425 33.0867 105.425 42.6201V49.3801C105.425 58.8267 107.635 65.9768 112.055 70.8301C116.562 75.6834 122.325 78.1101 129.345 78.1101Z" fill="black"/>
<path d="M58.5 51.59H15.6V91.5H0V0.5H15.6V37.81H58.5V0.5H74.1V91.5H58.5V51.59Z" fill="black"/>
</mask>
<g mask="url(#mask0_1852_1453)">
<rect x="-15" y="1" width="753" height="56" fill="black"/>
</g>
</svg>
