<svg width="576" height="56" viewBox="0 0 576 56" fill="none" xmlns="http://www.w3.org/2000/svg">
<mask id="mask0_1860_1495" style="mask-type:alpha" maskUnits="userSpaceOnUse" x="3" y="0" width="570" height="94">
<path d="M556.871 52.2599H513.971V92.1699H498.371V1.16992H513.971V38.4799H556.871V1.16992H572.471V92.1699H556.871V52.2599Z" fill="black"/>
<path d="M464.576 20.1499L458.856 32.3699L426.876 92.1699H406.076V1.16992H421.676V73.8399L427.656 60.9699L459.636 1.16992H480.176V92.1699H464.576V20.1499Z" fill="black"/>
<path d="M358.662 93.34C347.655 93.34 339.335 90.61 333.702 85.15C328.069 79.69 324.905 71.8467 324.212 61.62H340.592C341.285 67.6 343.019 71.9767 345.792 74.75C348.652 77.4367 352.942 78.78 358.662 78.78C364.382 78.78 368.585 77.5667 371.272 75.14C374.045 72.7133 375.432 69.5067 375.432 65.52C375.432 61.5333 374.045 58.3267 371.272 55.9C368.585 53.4733 364.382 52.26 358.662 52.26H347.612V38.48H358.662C363.862 38.48 367.632 37.44 369.972 35.36C372.312 33.1933 373.482 30.2467 373.482 26.52C373.482 22.7933 372.312 19.89 369.972 17.81C367.632 15.6433 363.862 14.56 358.662 14.56C353.462 14.56 349.649 15.73 347.222 18.07C344.795 20.41 343.235 24.0933 342.542 29.12H326.162C326.855 19.9333 329.889 12.7833 335.262 7.67C340.635 2.55667 348.435 0 358.662 0C363.775 0 368.282 0.650001 372.182 1.95C376.082 3.16334 379.332 4.89667 381.932 7.15C384.532 9.40334 386.482 12.09 387.782 15.21C389.169 18.2433 389.862 21.58 389.862 25.22C389.862 29.5533 388.952 33.41 387.132 36.79C385.312 40.17 382.539 42.9433 378.812 45.11C383.232 47.3633 386.482 50.3533 388.562 54.08C390.729 57.8067 391.812 62.0533 391.812 66.82C391.812 70.6333 391.119 74.1867 389.732 77.48C388.345 80.6867 386.222 83.46 383.362 85.8C380.589 88.14 377.122 90.0033 372.962 91.39C368.889 92.69 364.122 93.34 358.662 93.34Z" fill="black"/>
<path d="M296.671 69.1599H262.221L254.681 92.1699H238.301L270.801 1.16992H289.001L321.501 92.1699H304.341L296.671 69.1599ZM266.771 55.3799H292.121L285.621 35.4899L279.511 16.7699L273.401 35.4899L266.771 55.3799Z" fill="black"/>
<path d="M192.795 1.16992H248.695V14.9499H208.395V92.1699H192.795V1.16992Z" fill="black"/>
<path d="M158.165 69.1599H123.715L116.175 92.1699H99.7949L132.295 1.16992H150.495L182.995 92.1699H165.835L158.165 69.1599ZM128.265 55.3799H153.615L147.115 35.4899L141.005 16.7699L134.895 35.4899L128.265 55.3799Z" fill="black"/>
<path d="M23.93 32.3699L18.6 18.5899V92.1699H3V1.16992H26.4L46.68 50.4399L66.96 1.16992H90.1V92.1699H74.5V18.4599L69.04 32.3699L54.35 68.1199H38.75L23.93 32.3699Z" fill="black"/>
</mask>
<g mask="url(#mask0_1860_1495)">
<rect x="-1" y="1" width="607" height="54" fill="black"/>
</g>
</svg>
