<svg width="695" height="92" viewBox="0 0 695 92" fill="none" xmlns="http://www.w3.org/2000/svg">
<g clip-path="url(#clip0_1852_1428)">
<mask id="mask0_1852_1428" style="mask-type:alpha" maskUnits="userSpaceOnUse" x="15" y="0" width="587" height="95">
<path d="M511.895 2H527.495V32.94H541.145C552.758 32.94 561.511 35.67 567.405 41.13C573.298 46.59 576.245 53.87 576.245 62.97C576.245 72.6767 573.428 80.13 567.795 85.33C562.248 90.4433 553.365 93 541.145 93H511.895V2ZM585.995 2H601.595V93H585.995V2ZM527.495 46.72V79.22H541.145C547.645 79.22 552.368 77.8333 555.315 75.06C558.348 72.2 559.865 68.17 559.865 62.97C559.865 58.03 558.305 54.0867 555.185 51.14C552.065 48.1933 547.384 46.72 541.145 46.72H527.495Z" fill="black"/>
<path d="M429.335 2H500.835V15.78H472.885V93H457.285V15.78H429.335V2Z" fill="black"/>
<path d="M391 94.1701C385.02 94.1701 379.56 93.2168 374.62 91.3101C369.766 89.4034 365.606 86.5868 362.14 82.8601C358.76 79.1334 356.116 74.6267 354.21 69.3401C352.303 63.9667 351.35 57.8134 351.35 50.8801V44.1201C351.35 37.2734 352.303 31.2067 354.21 25.9201C356.116 20.5467 358.803 15.9967 362.27 12.2701C365.736 8.54341 369.896 5.72674 374.75 3.82008C379.69 1.82674 385.106 0.830078 391 0.830078C396.286 0.830078 401.053 1.61008 405.3 3.17008C409.633 4.73008 413.36 6.85341 416.48 9.54008C419.6 12.1401 422.113 15.2167 424.02 18.7701C426.013 22.2367 427.356 25.9634 428.05 29.9501H410.89C410.196 27.9567 409.286 26.0934 408.16 24.3601C407.033 22.5401 405.646 20.9801 404 19.6801C402.353 18.3801 400.446 17.3401 398.28 16.5601C396.113 15.7801 393.686 15.3901 391 15.3901C384.066 15.3901 378.433 17.7734 374.1 22.5401C369.853 27.3067 367.73 34.5001 367.73 44.1201V50.8801C367.73 55.6467 368.293 59.8501 369.42 63.4901C370.633 67.0434 372.236 70.0334 374.23 72.4601C376.31 74.8001 378.78 76.5768 381.64 77.7901C384.5 79.0034 387.62 79.6101 391 79.6101C396.286 79.6101 400.62 78.0501 404 74.9301C407.38 71.8101 409.676 67.6501 410.89 62.4501H428.05C427.356 67.0434 426.013 71.2901 424.02 75.1901C422.113 79.0034 419.556 82.3401 416.35 85.2001C413.23 87.9734 409.546 90.1834 405.3 91.8301C401.053 93.3901 396.286 94.1701 391 94.1701Z" fill="black"/>
<path d="M320.805 20.98L315.085 33.2L283.105 93H262.305V2H277.905V74.67L283.885 61.8L315.865 2H336.405V93H320.805V20.98Z" fill="black"/>
<path d="M179.745 2H251.245V15.78H223.295V93H207.695V15.78H179.745V2Z" fill="black"/>
<path d="M108.945 2H140.145C152.365 2 161.249 4.6 166.795 9.8C172.429 14.9133 175.245 22.3233 175.245 32.03C175.245 41.13 172.299 48.41 166.405 53.87C160.512 59.33 151.759 62.06 140.145 62.06H124.545V93H108.945V2ZM124.545 15.78V48.28H140.145C146.385 48.28 151.065 46.8067 154.185 43.86C157.305 40.9133 158.865 36.97 158.865 32.03C158.865 26.83 157.349 22.8433 154.315 20.07C151.369 17.21 146.645 15.78 140.145 15.78H124.545Z" fill="black"/>
<path d="M74.3153 69.99H39.8653L32.3253 93H15.9453L48.4453 2H66.6453L99.1453 93H81.9853L74.3153 69.99ZM44.4153 56.21H69.7653L63.2653 36.32L57.1553 17.6L51.0453 36.32L44.4153 56.21Z" fill="black"/>
</mask>
<g mask="url(#mask0_1852_1428)">
<rect y="1" width="695" height="55" fill="black"/>
</g>
</g>
<defs>
<clipPath id="clip0_1852_1428">
<rect width="695" height="92" fill="white"/>
</clipPath>
</defs>
</svg>
