<svg width="1030" height="56" viewBox="0 0 1030 56" fill="none" xmlns="http://www.w3.org/2000/svg">
<g clip-path="url(#clip0_1969_559)">
<mask id="mask0_1969_559" style="mask-type:alpha" maskUnits="userSpaceOnUse" x="0" y="0" width="1026" height="94">
<path d="M959.298 1.16992H989.848C995.828 1.16992 1000.9 1.73326 1005.06 2.85992C1009.3 3.98659 1012.73 5.58993 1015.33 7.66993C1018.01 9.74992 1019.96 12.3499 1021.18 15.4699C1022.39 18.5033 1023 21.9699 1023 25.8699C1023 29.8566 1022.04 33.4966 1020.14 36.7899C1018.23 40.0833 1015.28 42.7699 1011.3 44.8499C1016.24 46.8433 1019.83 49.7033 1022.09 53.4299C1024.43 57.0699 1025.6 61.2299 1025.6 65.9099C1025.6 70.2433 1024.99 74.0566 1023.78 77.3499C1022.56 80.5566 1020.61 83.2866 1017.93 85.5399C1015.33 87.7066 1011.9 89.3533 1007.66 90.4799C1003.5 91.6066 998.428 92.1699 992.448 92.1699H959.298V1.16992ZM974.898 51.7399V78.9099H992.448C998.688 78.9099 1003.02 77.8266 1005.45 75.6599C1007.96 73.4066 1009.22 69.9399 1009.22 65.2599C1009.22 60.6666 1007.96 57.2866 1005.45 55.1199C1003.02 52.8666 998.688 51.7399 992.448 51.7399H974.898ZM974.898 14.4299V38.9999H989.848C996.001 38.9999 1000.33 37.9599 1002.85 35.8799C1005.36 33.7133 1006.62 30.6366 1006.62 26.6499C1006.62 22.7499 1005.36 19.7599 1002.85 17.6799C1000.33 15.5133 996.001 14.4299 989.848 14.4299H974.898Z" fill="black"/>
<path d="M904.053 93.34C897.986 93.34 892.44 92.3867 887.413 90.48C882.473 88.4867 878.226 85.67 874.673 82.03C871.206 78.3033 868.52 73.7533 866.613 68.38C864.706 63.0067 863.753 56.8967 863.753 50.05V43.29C863.753 36.53 864.706 30.4633 866.613 25.09C868.606 19.7167 871.336 15.21 874.803 11.57C878.356 7.84333 882.603 4.98333 887.543 2.99C892.57 0.996664 898.073 0 904.053 0C910.12 0 915.623 0.996664 920.563 2.99C925.59 4.89667 929.836 7.71333 933.303 11.44C936.856 15.1667 939.586 19.7167 941.493 25.09C943.4 30.3767 944.353 36.4433 944.353 43.29V50.05C944.353 56.81 943.356 62.8767 941.363 68.25C939.456 73.6233 936.726 78.1733 933.173 81.9C929.706 85.6267 925.46 88.4867 920.433 90.48C915.493 92.3867 910.033 93.34 904.053 93.34ZM904.053 78.78C911.16 78.78 916.923 76.3967 921.343 71.63C925.763 66.7767 927.973 59.5833 927.973 50.05V43.29C927.973 38.61 927.366 34.4933 926.153 30.94C925.026 27.3 923.38 24.31 921.213 21.97C919.133 19.5433 916.62 17.7233 913.673 16.51C910.726 15.21 907.52 14.56 904.053 14.56C896.86 14.56 891.053 16.9867 886.633 21.84C882.3 26.6067 880.133 33.7567 880.133 43.29V50.05C880.133 59.4967 882.343 66.6467 886.763 71.5C891.27 76.3533 897.033 78.78 904.053 78.78Z" fill="black"/>
<path d="M789.648 1.16992H861.148V14.9499H833.198V92.1699H817.598V14.9499H789.648V1.16992Z" fill="black"/>
<path d="M763.003 52.2599H720.103V92.1699H704.503V1.16992H720.103V38.4799H763.003V1.16992H778.603V92.1699H763.003V52.2599Z" fill="black"/>
<path d="M631.759 1.16992H690.259V14.9499H647.359V38.4799H682.459V52.2599H647.359V78.3899H690.259V92.1699H631.759V1.16992Z" fill="black"/>
<path d="M551.144 1.16992H581.694C587.674 1.16992 592.744 1.73326 596.904 2.85992C601.15 3.98659 604.574 5.58993 607.174 7.66993C609.86 9.74992 611.81 12.3499 613.024 15.4699C614.237 18.5033 614.844 21.9699 614.844 25.8699C614.844 29.8566 613.89 33.4966 611.984 36.7899C610.077 40.0833 607.13 42.7699 603.144 44.8499C608.084 46.8433 611.68 49.7033 613.934 53.4299C616.274 57.0699 617.444 61.2299 617.444 65.9099C617.444 70.2433 616.837 74.0566 615.624 77.3499C614.41 80.5566 612.46 83.2866 609.774 85.5399C607.174 87.7066 603.75 89.3533 599.504 90.4799C595.344 91.6066 590.274 92.1699 584.294 92.1699H551.144V1.16992ZM566.744 51.7399V78.9099H584.294C590.534 78.9099 594.867 77.8266 597.294 75.6599C599.807 73.4066 601.064 69.9399 601.064 65.2599C601.064 60.6666 599.807 57.2866 597.294 55.1199C594.867 52.8666 590.534 51.7399 584.294 51.7399H566.744ZM566.744 14.4299V38.9999H581.694C587.847 38.9999 592.18 37.9599 594.694 35.8799C597.207 33.7133 598.464 30.6366 598.464 26.6499C598.464 22.7499 597.207 19.7599 594.694 17.6799C592.18 15.5133 587.847 14.4299 581.694 14.4299H566.744Z" fill="black"/>
<path d="M517.349 20.1499L511.629 32.3699L479.649 92.1699H458.849V1.16992H474.449V73.8399L480.429 60.9699L512.409 1.16992H532.949V92.1699H517.349V20.1499Z" fill="black"/>
<path d="M392.554 20.1499L386.834 32.3699L354.854 92.1699H334.054V1.16992H349.654V73.8399L355.634 60.9699L387.614 1.16992H408.154V92.1699H392.554V20.1499Z" fill="black"/>
<path d="M276.234 52.2599H267.134V92.1699H251.534V1.16992H267.134V38.4799H276.234L301.974 1.16992H320.434L289.494 44.7199L323.034 92.1699H303.534L276.234 52.2599Z" fill="black"/>
<path d="M217.75 59.1499C215.323 59.7566 212.55 60.2766 209.43 60.7099C206.397 61.1433 203.103 61.3599 199.55 61.3599C193.397 61.3599 188.197 60.7533 183.95 59.5399C179.703 58.3266 176.193 56.3766 173.42 53.6899C170.733 50.9166 168.783 47.3633 167.57 43.0299C166.357 38.6966 165.75 33.4099 165.75 27.1699V1.16992H181.35V27.1699C181.35 34.6233 182.78 39.9099 185.64 43.0299C188.5 46.0633 193.137 47.5799 199.55 47.5799C203.017 47.5799 206.31 47.3633 209.43 46.9299C212.55 46.4966 215.323 45.9766 217.75 45.3699V1.16992H233.35V92.1699H217.75V59.1499Z" fill="black"/>
<path d="M114.404 93.34C108.338 93.34 102.791 92.3867 97.7645 90.48C92.8245 88.4867 88.5778 85.67 85.0245 82.03C81.5578 78.3033 78.8712 73.7533 76.9645 68.38C75.0578 63.0067 74.1045 56.8967 74.1045 50.05V43.29C74.1045 36.53 75.0578 30.4633 76.9645 25.09C78.9578 19.7167 81.6878 15.21 85.1545 11.57C88.7078 7.84333 92.9545 4.98333 97.8945 2.99C102.921 0.996664 108.424 0 114.404 0C120.471 0 125.974 0.996664 130.914 2.99C135.941 4.89667 140.188 7.71333 143.655 11.44C147.208 15.1667 149.938 19.7167 151.844 25.09C153.751 30.3767 154.704 36.4433 154.704 43.29V50.05C154.704 56.81 153.708 62.8767 151.715 68.25C149.808 73.6233 147.078 78.1733 143.524 81.9C140.058 85.6267 135.811 88.4867 130.784 90.48C125.844 92.3867 120.384 93.34 114.404 93.34ZM114.404 78.78C121.511 78.78 127.274 76.3967 131.694 71.63C136.114 66.7767 138.325 59.5833 138.325 50.05V43.29C138.325 38.61 137.718 34.4933 136.504 30.94C135.378 27.3 133.731 24.31 131.564 21.97C129.484 19.5433 126.971 17.7233 124.024 16.51C121.078 15.21 117.871 14.56 114.404 14.56C107.211 14.56 101.404 16.9867 96.9845 21.84C92.6512 26.6067 90.4845 33.7567 90.4845 43.29V50.05C90.4845 59.4967 92.6945 66.6467 97.1145 71.5C101.621 76.3533 107.384 78.78 114.404 78.78Z" fill="black"/>
<path d="M0 1.16992H71.5V14.9499H43.55V92.1699H27.95V14.9499H0V1.16992Z" fill="black"/>
</mask>
<g mask="url(#mask0_1969_559)">
<rect x="-40.0684" y="1.16992" width="1128" height="55" fill="black"/>
</g>
</g>
<defs>
<clipPath id="clip0_1969_559">
<rect width="1030" height="56" fill="white"/>
</clipPath>
</defs>
</svg>
