<svg width="589" height="56" viewBox="0 0 589 56" fill="none" xmlns="http://www.w3.org/2000/svg">
<g clip-path="url(#clip0_1969_478)">
<mask id="mask0_1969_478" style="mask-type:alpha" maskUnits="userSpaceOnUse" x="0" y="0" width="589" height="94">
<path d="M573.295 20.1499L567.575 32.3699L535.595 92.1699H514.795V1.16992H530.395V73.8399L536.375 60.9699L568.355 1.16992H588.895V92.1699H573.295V20.1499Z" fill="black"/>
<path d="M432.234 1.16992H503.734V14.9499H475.784V92.1699H460.184V14.9499H432.234V1.16992Z" fill="black"/>
<path d="M393.9 93.34C387.92 93.34 382.46 92.3867 377.52 90.48C372.667 88.5733 368.507 85.7567 365.04 82.03C361.66 78.3033 359.017 73.7967 357.11 68.51C355.203 63.1367 354.25 56.9833 354.25 50.05V43.29C354.25 36.4433 355.203 30.3767 357.11 25.09C359.017 19.7167 361.703 15.1667 365.17 11.44C368.637 7.71333 372.797 4.89667 377.65 2.99C382.59 0.996664 388.007 0 393.9 0C399.187 0 403.953 0.78 408.2 2.34C412.533 3.9 416.26 6.02333 419.38 8.71C422.5 11.31 425.013 14.3867 426.92 17.94C428.913 21.4067 430.257 25.1333 430.95 29.12H413.79C413.097 27.1267 412.187 25.2633 411.06 23.53C409.933 21.71 408.547 20.15 406.9 18.85C405.253 17.55 403.347 16.51 401.18 15.73C399.013 14.95 396.587 14.56 393.9 14.56C386.967 14.56 381.333 16.9433 377 21.71C372.753 26.4767 370.63 33.67 370.63 43.29V50.05C370.63 54.8167 371.193 59.02 372.32 62.66C373.533 66.2133 375.137 69.2033 377.13 71.63C379.21 73.97 381.68 75.7467 384.54 76.96C387.4 78.1733 390.52 78.78 393.9 78.78C399.187 78.78 403.52 77.22 406.9 74.1C410.28 70.98 412.577 66.82 413.79 61.62H430.95C430.257 66.2133 428.913 70.46 426.92 74.36C425.013 78.1733 422.457 81.51 419.25 84.37C416.13 87.1433 412.447 89.3533 408.2 91C403.953 92.56 399.187 93.34 393.9 93.34Z" fill="black"/>
<path d="M302.255 93.34C296.188 93.34 290.642 92.3867 285.615 90.48C280.675 88.4867 276.428 85.67 272.875 82.03C269.408 78.3033 266.722 73.7533 264.815 68.38C262.908 63.0067 261.955 56.8967 261.955 50.05V43.29C261.955 36.53 262.908 30.4633 264.815 25.09C266.808 19.7167 269.538 15.21 273.005 11.57C276.558 7.84333 280.805 4.98333 285.745 2.99C290.772 0.996664 296.275 0 302.255 0C308.322 0 313.825 0.996664 318.765 2.99C323.792 4.89667 328.038 7.71333 331.505 11.44C335.058 15.1667 337.788 19.7167 339.695 25.09C341.602 30.3767 342.555 36.4433 342.555 43.29V50.05C342.555 56.81 341.558 62.8767 339.565 68.25C337.658 73.6233 334.928 78.1733 331.375 81.9C327.908 85.6267 323.662 88.4867 318.635 90.48C313.695 92.3867 308.235 93.34 302.255 93.34ZM302.255 78.78C309.362 78.78 315.125 76.3967 319.545 71.63C323.965 66.7767 326.175 59.5833 326.175 50.05V43.29C326.175 38.61 325.568 34.4933 324.355 30.94C323.228 27.3 321.582 24.31 319.415 21.97C317.335 19.5433 314.822 17.7233 311.875 16.51C308.928 15.21 305.722 14.56 302.255 14.56C295.062 14.56 289.255 16.9867 284.835 21.84C280.502 26.6067 278.335 33.7567 278.335 43.29V50.05C278.335 59.4967 280.545 66.6467 284.965 71.5C289.472 76.3533 295.235 78.78 302.255 78.78Z" fill="black"/>
<path d="M184.59 1.16992H215.14C221.12 1.16992 226.19 1.73326 230.35 2.85992C234.597 3.98659 238.02 5.58993 240.62 7.66993C243.307 9.74992 245.257 12.3499 246.47 15.4699C247.683 18.5033 248.29 21.9699 248.29 25.8699C248.29 29.8566 247.337 33.4966 245.43 36.7899C243.523 40.0833 240.577 42.7699 236.59 44.8499C241.53 46.8433 245.127 49.7033 247.38 53.4299C249.72 57.0699 250.89 61.2299 250.89 65.9099C250.89 70.2433 250.283 74.0566 249.07 77.3499C247.857 80.5566 245.907 83.2866 243.22 85.5399C240.62 87.7066 237.197 89.3533 232.95 90.4799C228.79 91.6066 223.72 92.1699 217.74 92.1699H184.59V1.16992ZM200.19 51.7399V78.9099H217.74C223.98 78.9099 228.313 77.8266 230.74 75.6599C233.253 73.4066 234.51 69.9399 234.51 65.2599C234.51 60.6666 233.253 57.2866 230.74 55.1199C228.313 52.8666 223.98 51.7399 217.74 51.7399H200.19ZM200.19 14.4299V38.9999H215.14C221.293 38.9999 225.627 37.9599 228.14 35.8799C230.653 33.7133 231.91 30.6366 231.91 26.6499C231.91 22.7499 230.653 19.7599 228.14 17.6799C225.627 15.5133 221.293 14.4299 215.14 14.4299H200.19Z" fill="black"/>
<path d="M129.345 93.34C123.278 93.34 117.732 92.3867 112.705 90.48C107.765 88.4867 103.518 85.67 99.9649 82.03C96.4983 78.3033 93.8116 73.7533 91.9049 68.38C89.9983 63.0067 89.0449 56.8967 89.0449 50.05V43.29C89.0449 36.53 89.9983 30.4633 91.9049 25.09C93.8983 19.7167 96.6283 15.21 100.095 11.57C103.648 7.84333 107.895 4.98333 112.835 2.99C117.862 0.996664 123.365 0 129.345 0C135.412 0 140.915 0.996664 145.855 2.99C150.882 4.89667 155.128 7.71333 158.595 11.44C162.148 15.1667 164.878 19.7167 166.785 25.09C168.692 30.3767 169.645 36.4433 169.645 43.29V50.05C169.645 56.81 168.648 62.8767 166.655 68.25C164.748 73.6233 162.018 78.1733 158.465 81.9C154.998 85.6267 150.752 88.4867 145.725 90.48C140.785 92.3867 135.325 93.34 129.345 93.34ZM129.345 78.78C136.452 78.78 142.215 76.3967 146.635 71.63C151.055 66.7767 153.265 59.5833 153.265 50.05V43.29C153.265 38.61 152.658 34.4933 151.445 30.94C150.318 27.3 148.672 24.31 146.505 21.97C144.425 19.5433 141.912 17.7233 138.965 16.51C136.018 15.21 132.812 14.56 129.345 14.56C122.152 14.56 116.345 16.9867 111.925 21.84C107.592 26.6067 105.425 33.7567 105.425 43.29V50.05C105.425 59.4967 107.635 66.6467 112.055 71.5C116.562 76.3533 122.325 78.78 129.345 78.78Z" fill="black"/>
<path d="M58.5 52.2599H15.6V92.1699H0V1.16992H15.6V38.4799H58.5V1.16992H74.1V92.1699H58.5V52.2599Z" fill="black"/>
</mask>
<g mask="url(#mask0_1969_478)">
<path d="M738 -0.330078H-15V57.6699H738V-0.330078Z" fill="black"/>
</g>
</g>
<defs>
<clipPath id="clip0_1969_478">
<rect width="589" height="56" fill="white"/>
</clipPath>
</defs>
</svg>
