<svg width="334" height="63" viewBox="0 0 334 63" fill="none" xmlns="http://www.w3.org/2000/svg">
<g filter="url(#filter0_f_1653_689)">
<path d="M219.691 55.9805V6.98047H328V16.6405H230.611V46.3205H328V55.9805H219.691ZM225.501 35.5405V26.4405H328V35.5405H225.501Z" fill="white"/>
<path d="M192.831 56.96C188.211 56.96 184.221 56.19 180.861 54.65C177.548 53.11 174.981 50.9633 173.161 48.21C171.341 45.4567 170.384 42.26 170.291 38.62H181.701C181.701 40.3 182.168 41.7933 183.101 43.1C184.034 44.36 185.364 45.34 187.091 46.04C188.818 46.6933 190.871 47.02 193.251 47.02C195.911 47.02 197.988 46.5767 199.481 45.69C201.021 44.8033 201.791 43.45 201.791 41.63C201.791 40.4633 201.464 39.53 200.811 38.83C200.204 38.0833 199.154 37.4767 197.661 37.01C196.214 36.4967 194.138 36.03 191.431 35.61C186.531 34.8633 182.704 33.93 179.951 32.81C177.198 31.69 175.238 30.22 174.071 28.4C172.904 26.5333 172.321 24.13 172.321 21.19C172.321 18.11 173.114 15.4267 174.701 13.14C176.288 10.8533 178.574 9.10334 181.561 7.89C184.548 6.63 188.048 6 192.061 6C196.121 6 199.691 6.72333 202.771 8.17C205.898 9.61667 208.324 11.6233 210.051 14.19C211.778 16.7567 212.664 19.72 212.711 23.08H201.301C201.254 21.4933 200.811 20.1633 199.971 19.09C199.131 18.0167 197.988 17.2233 196.541 16.71C195.094 16.1967 193.414 15.94 191.501 15.94C188.981 15.94 186.998 16.3367 185.551 17.13C184.104 17.9233 183.381 19.1367 183.381 20.77C183.381 21.89 183.708 22.8 184.361 23.5C185.061 24.1533 186.181 24.7367 187.721 25.25C189.308 25.7167 191.594 26.1367 194.581 26.51C199.014 27.1633 202.561 28.0967 205.221 29.31C207.881 30.4767 209.818 32.04 211.031 34C212.244 35.9133 212.851 38.34 212.851 41.28C212.851 44.5 212.011 47.3 210.331 49.68C208.698 52.0133 206.364 53.81 203.331 55.07C200.344 56.33 196.844 56.96 192.831 56.96Z" fill="white"/>
<path d="M153.52 55.9805V6.98047H164.23V55.9805H153.52Z" fill="white"/>
<path d="M124.487 56.9605C120.194 56.9605 116.414 56.0738 113.147 54.3005C109.927 52.4805 107.407 49.8671 105.587 46.4605C103.767 43.0071 102.857 38.9471 102.857 34.2805V6.98047H113.777V33.7205C113.777 36.5205 114.197 38.8771 115.037 40.7905C115.924 42.6571 117.161 44.0805 118.747 45.0605C120.334 45.9938 122.247 46.4605 124.487 46.4605C127.894 46.4605 130.531 45.3871 132.397 43.2405C134.311 41.0938 135.267 37.9205 135.267 33.7205V6.98047H145.907V34.2805C145.907 38.9471 144.997 43.0071 143.177 46.4605C141.404 49.8671 138.884 52.4805 135.617 54.3005C132.397 56.0738 128.687 56.9605 124.487 56.9605Z" fill="white"/>
<path d="M54.2617 55.9805V6.98047H78.1317C81.9584 6.98047 85.2251 7.65714 87.9317 9.01047C90.6851 10.3171 92.7617 12.1371 94.1617 14.4705C95.6084 16.8038 96.3317 19.5105 96.3317 22.5905C96.3317 25.6238 95.6084 28.3071 94.1617 30.6405C92.7617 32.9738 90.6851 34.7938 87.9317 36.1005C85.2251 37.3605 81.9584 37.9905 78.1317 37.9905H60.0717V28.5405H77.9217C79.4617 28.5405 80.7684 28.3071 81.8417 27.8405C82.9617 27.3738 83.8017 26.6971 84.3617 25.8105C84.9217 24.9238 85.2017 23.8505 85.2017 22.5905C85.2017 20.6771 84.5717 19.2071 83.3117 18.1805C82.0517 17.1538 80.2551 16.6405 77.9217 16.6405H65.1817V55.9805H54.2617ZM85.2017 55.9805L69.3817 32.3905H81.5617L97.8717 55.9805H85.2017Z" fill="white"/>
<path d="M6 55.9805V6.98047H28.54C32.3667 6.98047 35.6333 7.54047 38.34 8.66047C41.0467 9.78047 43.1 11.3438 44.5 13.3505C45.9 15.3105 46.6 17.5505 46.6 20.0705C46.6 22.2638 46.0867 24.2471 45.06 26.0205C44.0333 27.7471 42.54 29.1471 40.58 30.2205V30.8505C43.1 32.0171 45.0133 33.6038 46.32 35.6105C47.6733 37.5705 48.35 39.8338 48.35 42.4005C48.35 45.0605 47.6267 47.4171 46.18 49.4705C44.7333 51.4771 42.6333 53.0638 39.88 54.2305C37.1267 55.3971 33.8133 55.9805 29.94 55.9805H6ZM29.87 46.8105C31.5033 46.8105 32.8567 46.6005 33.93 46.1805C35.05 45.7138 35.8667 45.0838 36.38 44.2905C36.94 43.4505 37.22 42.4471 37.22 41.2805C37.22 39.5538 36.59 38.2005 35.33 37.2205C34.1167 36.2405 32.2967 35.7505 29.87 35.7505H11.6V26.6505H28.47C30.0567 26.6505 31.3633 26.4405 32.39 26.0205C33.4633 25.6005 34.2333 25.0171 34.7 24.2705C35.2133 23.4771 35.47 22.5205 35.47 21.4005C35.47 19.7671 34.8867 18.4838 33.72 17.5505C32.5533 16.6171 30.8033 16.1505 28.47 16.1505H16.92V46.8105H29.87Z" fill="white"/>
</g>
<defs>
<filter id="filter0_f_1653_689" x="0" y="0" width="334" height="62.9609" filterUnits="userSpaceOnUse" color-interpolation-filters="sRGB">
<feFlood flood-opacity="0" result="BackgroundImageFix"/>
<feBlend mode="normal" in="SourceGraphic" in2="BackgroundImageFix" result="shape"/>
<feGaussianBlur stdDeviation="3" result="effect1_foregroundBlur_1653_689"/>
</filter>
</defs>
</svg>
